<?xml version="1.0" ?><!DOCTYPE svg  PUBLIC '-//W3C//DTD SVG 1.1//EN'  'http://www.w3.org/Graphics/SVG/1.1/DTD/svg11.dtd'><svg enable-background="new 0 0 128 128" id="Слой_1" version="1.1" viewBox="0 0 128 128" xml:space="preserve" xmlns="http://www.w3.org/2000/svg" xmlns:xlink="http://www.w3.org/1999/xlink"><g><g><g><g><path d="M80.267,110H47.719c-3.584,0-6.5-2.916-6.5-6.5v-79c0-3.584,2.916-6.5,6.5-6.5h32.548      c3.584,0,6.5,2.916,6.5,6.5v79C86.767,107.084,83.851,110,80.267,110z M47.719,20c-2.481,0-4.5,2.019-4.5,4.5v79      c0,2.481,2.019,4.5,4.5,4.5h32.548c2.481,0,4.5-2.019,4.5-4.5v-79c0-2.481-2.019-4.5-4.5-4.5H47.719z" fill="#323638"/></g><g><path d="M81.993,96.008h-36c-0.276,0-0.5-0.224-0.5-0.5v-65.7c0-0.276,0.224-0.5,0.5-0.5h36      c0.276,0,0.5,0.224,0.5,0.5v65.7C82.493,95.785,82.27,96.008,81.993,96.008z M46.493,95.008h35v-64.7h-35V95.008z" fill="#323638"/></g></g><g><g><path d="M67.364,25.287h-6.742c-0.482,0-0.875-0.393-0.875-0.875V24.25c0-0.482,0.393-0.875,0.875-0.875h6.742      c0.482,0,0.875,0.393,0.875,0.875v0.162C68.239,24.894,67.846,25.287,67.364,25.287z M60.622,24.125      c-0.069,0-0.125,0.056-0.125,0.125v0.162c0,0.069,0.056,0.125,0.125,0.125h6.742c0.069,0,0.125-0.056,0.125-0.125V24.25      c0-0.069-0.056-0.125-0.125-0.125H60.622z" fill="#323638"/></g></g><g><g><path d="M57.058,25.528c-0.661,0-1.198-0.537-1.198-1.197c0-0.661,0.537-1.198,1.198-1.198      c0.66,0,1.197,0.537,1.197,1.198C58.255,24.991,57.718,25.528,57.058,25.528z M57.058,23.883c-0.247,0-0.448,0.201-0.448,0.448      c0,0.247,0.201,0.447,0.448,0.447c0.247,0,0.447-0.201,0.447-0.447C57.505,24.084,57.304,23.883,57.058,23.883z" fill="#323638"/></g></g><g><g><path d="M63.993,105.924c-2.075,0-3.762-1.688-3.762-3.762s1.688-3.762,3.762-3.762      c2.074,0,3.762,1.688,3.762,3.762S66.067,105.924,63.993,105.924z M63.993,99.149c-1.661,0-3.012,1.351-3.012,3.012      s1.351,3.012,3.012,3.012c1.661,0,3.012-1.351,3.012-3.012S65.654,99.149,63.993,99.149z" fill="#323638"/></g></g></g></g></svg>